<svg width="580" height="98" viewBox="0 0 580 98" fill="none" xmlns="http://www.w3.org/2000/svg">
<path d="M181.56 0.699463H214.822L184.833 65.3813C178.448 79.2156 169.819 97.8848 137.789 97.8848H23.4914L0.110596 80.1907H123.38C123.38 80.1907 142.356 80.7595 151.672 65.1376L181.56 0.699463Z" fill="#00263E"/>
<path d="M372.728 85.5938L367.07 97.8435H275.871L345.771 45.1879L300.06 45.127L317.318 32.8569H397.099L327.159 85.4719L372.728 85.5938Z" fill="#00263E"/>
<path d="M229.554 32.9172L212.296 45.106H261.018C261.921 45.1088 262.81 45.3405 263.601 45.7796C264.392 46.2188 265.06 46.8513 265.543 47.6187C266.026 48.3861 266.31 49.2637 266.366 50.1702C266.423 51.0767 266.252 51.983 265.868 52.8053H218.924C213.697 52.8149 208.582 54.3296 204.184 57.1701C199.786 60.0106 196.29 64.0581 194.109 68.8336L188.774 80.352C187.91 82.2236 187.528 84.2834 187.663 86.3421C187.798 88.4008 188.446 90.3924 189.546 92.1338C190.647 93.8753 192.165 95.3108 193.962 96.3083C195.758 97.3059 197.775 97.8336 199.828 97.8429H255.097C260.076 97.8366 264.95 96.4014 269.145 93.7059C273.341 91.0105 276.684 87.167 278.781 82.6272L289.087 60.1592C290.437 57.2445 291.035 54.0351 290.827 50.8268C290.619 47.6185 289.611 44.5145 287.896 41.8008C286.181 39.0871 283.814 36.851 281.013 35.2985C278.212 33.746 275.068 32.9271 271.87 32.9172H229.554ZM237.88 85.5525H219.43C218.717 85.5466 218.017 85.3602 217.394 85.0106C216.772 84.6609 216.247 84.1593 215.869 83.5519C215.49 82.9446 215.27 82.2512 215.228 81.5357C215.186 80.8202 215.325 80.1057 215.63 79.4581L217.651 75.2327C219.023 72.2118 221.227 69.6494 224.003 67.8491C226.778 66.0489 230.009 65.0863 233.313 65.0754H260.27L256.229 73.7497C254.611 77.2734 252.023 80.2577 248.772 82.3494C245.52 84.441 241.74 85.5526 237.88 85.5525Z" fill="#00263E"/>
<path d="M518.551 32.9172L501.273 45.106H549.995C550.898 45.1107 551.786 45.3433 552.576 45.7824C553.367 46.2216 554.035 46.8533 554.52 47.6195C555.005 48.3858 555.29 49.2621 555.351 50.1682C555.411 51.0742 555.244 51.981 554.865 52.8053H507.921C502.69 52.8086 497.57 54.3204 493.167 57.1614C488.765 60.0025 485.266 64.0534 483.086 68.8336L477.751 80.352C476.852 82.2206 476.444 84.2888 476.563 86.3606C476.683 88.4325 477.327 90.4393 478.434 92.191C479.541 93.9427 481.074 95.3813 482.889 96.3703C484.704 97.3594 486.74 97.8663 488.804 97.8429H544.054C549.034 97.8415 553.91 96.4083 558.106 93.7123C562.303 91.0163 565.645 87.1701 567.738 82.6272L578.064 60.1592C579.419 57.2465 580.022 54.0376 579.817 50.8288C579.612 47.62 578.606 44.5148 576.893 41.8C575.179 39.0851 572.812 36.8482 570.011 35.2957C567.21 33.7432 564.065 32.9252 560.867 32.9172H518.551ZM526.856 85.5525H508.427C507.712 85.552 507.009 85.3691 506.383 85.0208C505.758 84.6725 505.23 84.1704 504.851 83.5613C504.471 82.9523 504.251 82.2564 504.212 81.5387C504.173 80.821 504.316 80.1052 504.627 79.4581L506.648 75.2327C508.016 72.2087 510.219 69.6436 512.996 67.8427C515.772 66.0419 519.005 65.0813 522.31 65.0754H549.247L545.205 73.7497C543.588 77.2734 541 80.2577 537.748 82.3494C534.497 84.441 530.717 85.5526 526.856 85.5525Z" fill="#00263E"/>
<path d="M465.283 32.8972H431.939L446.832 0.698486H420.259L375.336 97.8432H437.719C444.818 97.8339 451.767 95.7872 457.749 91.9438C463.731 88.1005 468.497 82.6201 471.486 76.1471L480.418 56.8279C481.607 54.2668 482.134 51.446 481.952 48.6259C481.769 45.8058 480.883 43.0775 479.374 40.6927C477.866 38.3079 475.784 36.3436 473.321 34.9811C470.858 33.6187 468.094 32.902 465.283 32.8972ZM453.158 58.1687L446.085 73.5062C444.419 77.1124 441.763 80.1656 438.431 82.3068C435.098 84.448 431.226 85.5882 427.271 85.5935H407.608L426.261 45.2485H445.883C447.32 45.3993 448.7 45.8936 449.908 46.69C451.116 47.4865 452.117 48.562 452.827 49.8266C453.537 51.0913 453.936 52.5085 453.99 53.9597C454.044 55.411 453.751 56.8541 453.137 58.1687H453.158Z" fill="#00263E"/>
</svg>
